<?xml version="1.0" encoding="UTF-8" standalone="no"?>
<!DOCTYPE svg PUBLIC "-//W3C//DTD SVG 1.1//EN"
 "http://www.w3.org/Graphics/SVG/1.1/DTD/svg11.dtd">
<!-- Generated by graphviz version 2.43.0 (0)
 -->
<!-- Title: %3 Pages: 1 -->
<svg width="758pt" height="260pt"
 viewBox="0.00 0.00 757.92 260.00" xmlns="http://www.w3.org/2000/svg" xmlns:xlink="http://www.w3.org/1999/xlink">
<g id="graph0" class="graph" transform="scale(1 1) rotate(0) translate(4 256)">
<title>%3</title>
<polygon fill="white" stroke="transparent" points="-4,4 -4,-256 753.92,-256 753.92,4 -4,4"/>
<!-- [root] aws_iam_user.iamusers (expand) -->
<g id="node1" class="node">
<title>[root] aws_iam_user.iamusers (expand)</title>
<polygon fill="none" stroke="black" points="335.24,-108 189.24,-108 189.24,-72 335.24,-72 335.24,-108"/>
<text text-anchor="middle" x="262.24" y="-86.3" font-family="Times,serif" font-size="14.00">aws_iam_user.iamusers</text>
</g>
<!-- [root] provider[&quot;registry.terraform.io/hashicorp/aws&quot;].prod -->
<g id="node4" class="node">
<title>[root] provider[&quot;registry.terraform.io/hashicorp/aws&quot;].prod</title>
<polygon fill="none" stroke="black" points="423.24,-36 144.73,-18 423.24,0 701.75,-18 423.24,-36"/>
<text text-anchor="middle" x="423.24" y="-14.3" font-family="Times,serif" font-size="14.00">provider[&quot;registry.terraform.io/hashicorp/aws&quot;].prod</text>
</g>
<!-- [root] aws_iam_user.iamusers (expand)&#45;&gt;[root] provider[&quot;registry.terraform.io/hashicorp/aws&quot;].prod -->
<g id="edge1" class="edge">
<title>[root] aws_iam_user.iamusers (expand)&#45;&gt;[root] provider[&quot;registry.terraform.io/hashicorp/aws&quot;].prod</title>
<path fill="none" stroke="black" d="M301.62,-71.88C325.29,-61.59 355.44,-48.48 379.8,-37.89"/>
<polygon fill="black" stroke="black" points="381.39,-41.01 389.17,-33.81 378.6,-34.59 381.39,-41.01"/>
</g>
<!-- [root] aws_instance.example (expand) -->
<g id="node2" class="node">
<title>[root] aws_instance.example (expand)</title>
<polygon fill="none" stroke="black" points="492.74,-108 353.74,-108 353.74,-72 492.74,-72 492.74,-108"/>
<text text-anchor="middle" x="423.24" y="-86.3" font-family="Times,serif" font-size="14.00">aws_instance.example</text>
</g>
<!-- [root] aws_instance.example (expand)&#45;&gt;[root] provider[&quot;registry.terraform.io/hashicorp/aws&quot;].prod -->
<g id="edge2" class="edge">
<title>[root] aws_instance.example (expand)&#45;&gt;[root] provider[&quot;registry.terraform.io/hashicorp/aws&quot;].prod</title>
<path fill="none" stroke="black" d="M423.24,-71.7C423.24,-63.98 423.24,-54.71 423.24,-46.11"/>
<polygon fill="black" stroke="black" points="426.74,-46.1 423.24,-36.1 419.74,-46.1 426.74,-46.1"/>
</g>
<!-- [root] aws_instance.example1 (expand) -->
<g id="node3" class="node">
<title>[root] aws_instance.example1 (expand)</title>
<polygon fill="none" stroke="black" points="657.24,-108 511.24,-108 511.24,-72 657.24,-72 657.24,-108"/>
<text text-anchor="middle" x="584.24" y="-86.3" font-family="Times,serif" font-size="14.00">aws_instance.example1</text>
</g>
<!-- [root] aws_instance.example1 (expand)&#45;&gt;[root] provider[&quot;registry.terraform.io/hashicorp/aws&quot;].prod -->
<g id="edge3" class="edge">
<title>[root] aws_instance.example1 (expand)&#45;&gt;[root] provider[&quot;registry.terraform.io/hashicorp/aws&quot;].prod</title>
<path fill="none" stroke="black" d="M544.85,-71.88C521.19,-61.59 491.03,-48.48 466.68,-37.89"/>
<polygon fill="black" stroke="black" points="467.88,-34.59 457.31,-33.81 465.08,-41.01 467.88,-34.59"/>
</g>
<!-- [root] output.iamarns (expand) -->
<g id="node5" class="node">
<title>[root] output.iamarns (expand)</title>
<ellipse fill="none" stroke="black" cx="120.24" cy="-162" rx="120.48" ry="18"/>
<text text-anchor="middle" x="120.24" y="-158.3" font-family="Times,serif" font-size="14.00">[root] output.iamarns (expand)</text>
</g>
<!-- [root] output.iamarns (expand)&#45;&gt;[root] aws_iam_user.iamusers (expand) -->
<g id="edge4" class="edge">
<title>[root] output.iamarns (expand)&#45;&gt;[root] aws_iam_user.iamusers (expand)</title>
<path fill="none" stroke="black" d="M153.53,-144.59C172.95,-135.01 197.68,-122.82 218.64,-112.49"/>
<polygon fill="black" stroke="black" points="220.25,-115.6 227.67,-108.04 217.16,-109.32 220.25,-115.6"/>
</g>
<!-- [root] provider[&quot;registry.terraform.io/hashicorp/aws&quot;].prod (close) -->
<g id="node6" class="node">
<title>[root] provider[&quot;registry.terraform.io/hashicorp/aws&quot;].prod (close)</title>
<ellipse fill="none" stroke="black" cx="504.24" cy="-162" rx="245.86" ry="18"/>
<text text-anchor="middle" x="504.24" y="-158.3" font-family="Times,serif" font-size="14.00">[root] provider[&quot;registry.terraform.io/hashicorp/aws&quot;].prod (close)</text>
</g>
<!-- [root] provider[&quot;registry.terraform.io/hashicorp/aws&quot;].prod (close)&#45;&gt;[root] aws_iam_user.iamusers (expand) -->
<g id="edge5" class="edge">
<title>[root] provider[&quot;registry.terraform.io/hashicorp/aws&quot;].prod (close)&#45;&gt;[root] aws_iam_user.iamusers (expand)</title>
<path fill="none" stroke="black" d="M446.89,-144.41C412.12,-134.35 367.54,-121.46 330.9,-110.86"/>
<polygon fill="black" stroke="black" points="331.86,-107.5 321.28,-108.08 329.92,-114.22 331.86,-107.5"/>
</g>
<!-- [root] provider[&quot;registry.terraform.io/hashicorp/aws&quot;].prod (close)&#45;&gt;[root] aws_instance.example (expand) -->
<g id="edge6" class="edge">
<title>[root] provider[&quot;registry.terraform.io/hashicorp/aws&quot;].prod (close)&#45;&gt;[root] aws_instance.example (expand)</title>
<path fill="none" stroke="black" d="M484.63,-144.05C474.46,-135.26 461.86,-124.38 450.74,-114.76"/>
<polygon fill="black" stroke="black" points="452.8,-111.92 442.95,-108.03 448.22,-117.22 452.8,-111.92"/>
</g>
<!-- [root] provider[&quot;registry.terraform.io/hashicorp/aws&quot;].prod (close)&#45;&gt;[root] aws_instance.example1 (expand) -->
<g id="edge7" class="edge">
<title>[root] provider[&quot;registry.terraform.io/hashicorp/aws&quot;].prod (close)&#45;&gt;[root] aws_instance.example1 (expand)</title>
<path fill="none" stroke="black" d="M523.61,-144.05C533.65,-135.26 546.09,-124.38 557.08,-114.76"/>
<polygon fill="black" stroke="black" points="559.55,-117.25 564.77,-108.03 554.94,-111.98 559.55,-117.25"/>
</g>
<!-- [root] root -->
<g id="node7" class="node">
<title>[root] root</title>
<ellipse fill="none" stroke="black" cx="312.24" cy="-234" rx="47.39" ry="18"/>
<text text-anchor="middle" x="312.24" y="-230.3" font-family="Times,serif" font-size="14.00">[root] root</text>
</g>
<!-- [root] root&#45;&gt;[root] output.iamarns (expand) -->
<g id="edge8" class="edge">
<title>[root] root&#45;&gt;[root] output.iamarns (expand)</title>
<path fill="none" stroke="black" d="M279.23,-220.97C250.15,-210.36 207.27,-194.73 173.36,-182.37"/>
<polygon fill="black" stroke="black" points="174.2,-178.95 163.6,-178.81 171.8,-185.52 174.2,-178.95"/>
</g>
<!-- [root] root&#45;&gt;[root] provider[&quot;registry.terraform.io/hashicorp/aws&quot;].prod (close) -->
<g id="edge9" class="edge">
<title>[root] root&#45;&gt;[root] provider[&quot;registry.terraform.io/hashicorp/aws&quot;].prod (close)</title>
<path fill="none" stroke="black" d="M345.25,-220.97C373.64,-210.61 415.21,-195.46 448.72,-183.24"/>
<polygon fill="black" stroke="black" points="450.19,-186.43 458.38,-179.72 447.79,-179.86 450.19,-186.43"/>
</g>
</g>
</svg>
